HIERARCHY
ROOT hip
{
  OFFSET 0 0 0
  CHANNELS 6 Xposition Yposition Zposition Zrotation Yrotation Xrotation
  JOINT abdomen
  {
    OFFSET 0 20.6881 -0.73152
    CHANNELS 3 Zrotation Xrotation Yrotation
    JOINT chest
    {
      OFFSET 0 11.7043 -0.48768
      CHANNELS 3 Zrotation Xrotation Yrotation
      JOINT neck
      {
        OFFSET 0 22.1894 -2.19456
        CHANNELS 3 Zrotation Xrotation Yrotation
        JOINT head
        {
          OFFSET -0.24384 7.07133 1.2192
          CHANNELS 3 Zrotation Xrotation Yrotation
          JOINT leftEye
          {
            OFFSET 4.14528 8.04674 8.04672
            CHANNELS 3 Zrotation Xrotation Yrotation
            End Site
            {
              OFFSET 1 0 0
            }
          }
          JOINT rightEye
          {
            OFFSET -3.6576 8.04674 8.04672
            CHANNELS 3 Zrotation Xrotation Yrotation
            End Site
            {
              OFFSET 1 0 0
            }
          }
        }
      }
      JOINT rCollar
      {
        OFFSET -2.68224 19.2634 -4.8768
        CHANNELS 3 Zrotation Xrotation Yrotation
        JOINT rShldr
        {
          OFFSET -8.77824 -1.95073 1.46304
          CHANNELS 3 Zrotation Xrotation Yrotation
          JOINT rForeArm
          {
            OFFSET -28.1742 -1.7115 0.48768
            CHANNELS 3 Zrotation Xrotation Yrotation
            JOINT rHand
            {
              OFFSET -22.5879 0.773209 7.07136
              CHANNELS 3 Zrotation Xrotation Yrotation
              JOINT rThumb1
              {
                OFFSET -1.2192 -0.487915 3.41376
                CHANNELS 3 Zrotation Xrotation Yrotation
                JOINT rThumb2
                {
                  OFFSET -3.37035 -0.52449 3.41376
                  CHANNELS 3 Zrotation Xrotation Yrotation
                  End Site
                  {
                    OFFSET -1.78271 -1.18214 1.43049
                  }
                }
              }
              JOINT rIndex1
              {
                OFFSET -7.75947 0.938293 5.60832
                CHANNELS 3 Zrotation Xrotation Yrotation
                JOINT rIndex2
                {
                  OFFSET -2.54057 -0.884171 1.56538
                  CHANNELS 3 Zrotation Xrotation Yrotation
                  End Site
                  {
                    OFFSET -1.62519 -0.234802 1.16502
                  }
                }
              }
              JOINT rMid1
              {
                OFFSET -8.24714 1.18213 3.41376
                CHANNELS 3 Zrotation Xrotation Yrotation
                JOINT rMid2
                {
                  OFFSET -3.10165 -0.590103 1.0647
                  CHANNELS 3 Zrotation Xrotation Yrotation
                  End Site
                  {
                    OFFSET -2.48547 -0.328903 0.83742
                  }
                }
              }
              JOINT rRing1
              {
                OFFSET -8.82822 0.546677 1.51678
                CHANNELS 3 Zrotation Xrotation Yrotation
                JOINT rRing2
                {
                  OFFSET -2.60934 -0.819778 -0.0198488
                  CHANNELS 3 Zrotation Xrotation Yrotation
                  End Site
                  {
                    OFFSET -2.33842 -0.294052 0.168128
                  }
                }
              }
              JOINT rPinky1
              {
                OFFSET -8.27202 -0.0477905 -0.4584
                CHANNELS 3 Zrotation Xrotation Yrotation
                JOINT rPinky2
                {
                  OFFSET -1.82734 -0.647385 -0.700984
                  CHANNELS 3 Zrotation Xrotation Yrotation
                  End Site
                  {
                    OFFSET -1.69225 -0.51767 -0.607171
                  }
                }
              }
            }
          }
        }
      }
      JOINT lCollar
      {
        OFFSET 2.68224 19.2634 -4.8768
        CHANNELS 3 Zrotation Xrotation Yrotation
        JOINT lShldr
        {
          OFFSET 8.77824 -1.95073 1.46304
          CHANNELS 3 Zrotation Xrotation Yrotation
          JOINT lForeArm
          {
            OFFSET 28.1742 -1.7115 0.48768
            CHANNELS 3 Zrotation Xrotation Yrotation
            JOINT lHand
            {
              OFFSET 22.5879 0.773209 7.07136
              CHANNELS 3 Zrotation Xrotation Yrotation
              JOINT lThumb1
              {
                OFFSET 1.2192 -0.487915 3.41376
                CHANNELS 3 Zrotation Xrotation Yrotation
                JOINT lThumb2
                {
                  OFFSET 3.37035 -0.52449 3.41376
                  CHANNELS 3 Zrotation Xrotation Yrotation
                  End Site
                  {
                    OFFSET 1.78271 -1.18214 1.43049
                  }
                }
              }
              JOINT lIndex1
              {
                OFFSET 7.75947 0.938293 5.60832
                CHANNELS 3 Zrotation Xrotation Yrotation
                JOINT lIndex2
                {
                  OFFSET 2.54057 -0.884171 1.56538
                  CHANNELS 3 Zrotation Xrotation Yrotation
                  End Site
                  {
                    OFFSET 1.62519 -0.234802 1.16502
                  }
                }
              }
              JOINT lMid1
              {
                OFFSET 8.24714 1.18213 3.41376
                CHANNELS 3 Zrotation Xrotation Yrotation
                JOINT lMid2
                {
                  OFFSET 3.10165 -0.590103 1.0647
                  CHANNELS 3 Zrotation Xrotation Yrotation
                  End Site
                  {
                    OFFSET 2.48547 -0.328903 0.83742
                  }
                }
              }
              JOINT lRing1
              {
                OFFSET 8.82822 0.546677 1.51678
                CHANNELS 3 Zrotation Xrotation Yrotation
                JOINT lRing2
                {
                  OFFSET 2.60934 -0.819778 -0.0198488
                  CHANNELS 3 Zrotation Xrotation Yrotation
                  End Site
                  {
                    OFFSET 2.33842 -0.294052 0.168128
                  }
                }
              }
              JOINT lPinky1
              {
                OFFSET 8.27202 -0.0477905 -0.4584
                CHANNELS 3 Zrotation Xrotation Yrotation
                JOINT lPinky2
                {
                  OFFSET 1.82734 -0.647385 -0.700984
                  CHANNELS 3 Zrotation Xrotation Yrotation
                  End Site
                  {
                    OFFSET 1.69225 -0.51767 -0.607171
                  }
                }
              }
            }
          }
        }
      }
    }
  }
  JOINT rButtock
  {
    OFFSET -8.77824 4.35084 1.2192
    CHANNELS 3 Zrotation Xrotation Yrotation
    JOINT rThigh
    {
      OFFSET 0 -1.70687 -2.19456
      CHANNELS 3 Zrotation Xrotation Yrotation
      JOINT rShin
      {
        OFFSET 0 -36.8199 0.73152
        CHANNELS 3 Zrotation Xrotation Yrotation
        JOINT rFoot
        {
          OFFSET 0.73152 -45.1104 -5.12064
          CHANNELS 3 Zrotation Xrotation Yrotation
          End Site
          {
            OFFSET -1.1221 -3.69964 12.103
          }
        }
      }
    }
  }
  JOINT lButtock
  {
    OFFSET 8.77824 4.35084 1.2192
    CHANNELS 3 Zrotation Xrotation Yrotation
    JOINT lThigh
    {
      OFFSET 0 -1.70687 -2.19456
      CHANNELS 3 Zrotation Xrotation Yrotation
      JOINT lShin
      {
        OFFSET 0 -36.8199 0.73152
        CHANNELS 3 Zrotation Xrotation Yrotation
        JOINT lFoot
        {
          OFFSET -0.73152 -45.1104 -5.12064
          CHANNELS 3 Zrotation Xrotation Yrotation
          End Site
          {
            OFFSET 1.1221 -3.69964 12.103
          }
        }
      }
    }
  }
}
MOTION
Frames:	4
Frame Time:	0.03333
-19.9917 62.052800000000005 -109.262 2.074700355529785 23.384599685668945 7.784601211547852 -5.435510158538818 13.135601043701172 0.612375020980835 4.6772003173828125 -9.591390609741211 0.5362839698791504 -7.964119911193848 17.941102981567383 -9.554459571838379 13.997601509094238 -29.140100479125977 -15.535099029541016 -0.0 0.0 -0.0 -0.0 0.0 -0.0 2.2114000084241803e-13 -5.1373998371379015e-14 -1.191849895686159e-12 40.64350128173828 29.166799545288086 16.727699279785156 -28.319000244140625 -33.10140609741211 72.23619842529297 -0.04490549862384796 -6.03562068939209 -0.8514359593391418 -6.509269789845007e-10 -1.9670800099902408e-08 9.810509737917528e-09 -1.166479912662055e-09 -3.415340188439586e-08 1.6954800230450928e-08 -6.509269789845007e-10 -1.9670800099902408e-08 9.810519507880144e-09 7.730909824371338 5.474879741668701 0.4173140823841095 -6.509279781852229e-10 -1.9670800099902408e-08 9.810519507880144e-09 2.9055399894714355 0.9651829600334167 0.10290199518203735 -6.509199845794456e-10 -1.9670800099902408e-08 9.810519507880144e-09 10.27859878540039 0.73180091381073 0.025912316516041756 -6.509439653967775e-10 -1.9670800099902408e-08 9.81053016602118e-09 2.221669912338257 -0.733487069606781 -0.208919957280159 2.2107999025217095e-13 -5.137339867205236e-14 -1.1921399197672988e-12 -63.036800384521484 54.52069854736328 -13.586901664733887 27.84000015258789 -41.18499755859375 -86.07339477539062 1.2865201234817505 -30.40829849243164 4.7312703132629395 7.242479949098879e-10 -4.302239986486711e-08 9.587169946811969e-10 1.242259850542382e-09 -7.412100444526004e-08 1.6584900119909207e-09 7.242529909134987e-10 -4.302249934085012e-08 9.587289850898628e-10 -7.730909824371338 5.474879741668701 -0.4173140823841095 7.242509925120544e-10 -4.302239986486711e-08 9.58711998677586e-10 -2.9055399894714355 0.9651829600334167 -0.10290199518203735 7.242429989062771e-10 -4.302239986486711e-08 9.587159954804747e-10 -10.27859878540039 0.73180091381073 -0.025912316516041756 7.242569322052361e-10 -4.302249934085012e-08 9.587080018746974e-10 -2.221669912338257 -0.733487069606781 0.208919957280159 -2.0321699480147914e-16 0.0 -3.8825099822884138e-19 -33.94049835205078 -57.53670120239258 -27.121496200561523 -0.8817309737205505 56.589805603027344 1.2994698286056519 1.5022900104522705 -2.2836196422576904 7.567521095275879 2.0321699480147914e-16 0.0 3.8825099822884138e-19 13.740999221801758 -11.47809886932373 3.757810115814209 0.3797590136528015 54.51270294189453 -2.867840051651001 8.037890434265137 -18.312997817993164 25.700698852539062
-19.898800000000005 61.9868 -108.995 2.132199764251709 21.814899444580078 7.794100284576416 -5.917540550231934 12.834000587463379 0.8914510011672974 4.670039653778076 -9.518630981445312 0.5988479852676392 -7.882200241088867 17.774497985839844 -9.360198020935059 13.553000450134277 -28.888694763183594 -15.264699935913086 -0.0 0.0 -0.0 -0.0 0.0 -0.0 2.725589936039552e-13 -1.1175300051666226e-13 -1.349969940521445e-12 40.13829803466797 29.241701126098633 17.321300506591797 -28.29039764404297 -32.791202545166016 71.73100280761719 -0.04407300055027008 -5.982350826263428 -0.8438619375228882 -3.241460155845033e-10 -2.0557200386406294e-08 1.0947599271560193e-08 -6.060189572387742e-10 -3.5700598033372444e-08 1.8921998190535305e-08 -3.2414398942748335e-10 -2.05572998623893e-08 1.0947599271560193e-08 7.730909824371338 5.474879741668701 0.4173140823841095 -3.241460155845033e-10 -2.0557200386406294e-08 1.0947599271560193e-08 2.9055399894714355 0.9651829600334167 0.10290199518203735 -3.241369950224282e-10 -2.0557200386406294e-08 1.0947599271560193e-08 10.27859878540039 0.73180091381073 0.025912316516041756 -3.241619750404823e-10 -2.05572998623893e-08 1.0947599271560193e-08 2.221669912338257 -0.733487069606781 -0.208919957280159 2.7254798895190446e-13 -1.117549927381542e-13 -1.3502699392625717e-12 -63.186100006103516 54.665802001953125 -13.44999885559082 27.81199836730957 -41.309600830078125 -86.30130004882812 1.281460165977478 -30.35580062866211 4.721310615539551 1.3303299573053096e-09 -6.659009699205853e-08 2.385659891857017e-09 2.2579300651415224e-09 -1.1492699769632964e-07 4.133979825127199e-09 1.3303299573053096e-09 -6.659009699205853e-08 2.385659891857017e-09 -7.730909824371338 5.474879741668701 -0.4173140823841095 1.3303299573053096e-09 -6.659009699205853e-08 2.385659891857017e-09 -2.9055399894714355 0.9651829600334167 -0.10290199518203735 1.330319965298088e-09 -6.659009699205853e-08 2.385659891857017e-09 -10.27859878540039 0.73180091381073 -0.025912316516041756 1.3303299573053096e-09 -6.659009699205853e-08 2.3856501218944004e-09 -2.221669912338257 -0.733487069606781 0.208919957280159 -2.0321699480147914e-16 0.0 -3.8825099822884138e-19 -34.587799072265625 -57.85960388183594 -28.13699722290039 -0.9085540175437927 57.03140640258789 1.308119773864746 1.630829930305481 -1.8057000637054443 9.543869018554688 2.0321699480147914e-16 0.0 3.8825099822884138e-19 12.676899909973145 -9.432860374450684 3.3874597549438477 0.3206879496574402 52.73360061645508 -2.7995996475219727 8.487811088562012 -18.479000091552734 26.608198165893555
-19.668900000000004 61.9044 -108.601 2.5476999282836914 20.46230125427246 7.596599102020264 -6.42147970199585 12.596501350402832 1.1710498332977295 4.594709396362305 -9.444210052490234 0.6517410278320312 -7.761959075927734 17.528003692626953 -9.136401176452637 13.111898422241211 -28.485502243041992 -14.937996864318848 -0.0 0.0 -0.0 -0.0 0.0 -0.0 1.8015099909887353e-14 -3.449949947573715e-14 2.548329928152293e-13 39.70439910888672 29.35230255126953 17.827198028564453 -28.258203506469727 -32.47719955444336 71.22139739990234 -0.040857795625925064 -5.760910987854004 -0.8124069571495056 -1.0845099818190818e-10 5.97093985366115e-10 -7.095529719336469e-10 -1.8442600224766181e-10 1.049100029071326e-09 -1.2258299930678618e-09 -1.0844598830050955e-10 5.970869909610599e-10 -7.095509735322025e-10 7.730909824371338 5.474879741668701 0.4173140823841095 -1.0844999204229211e-10 5.970899885632264e-10 -7.095540266455203e-10 2.9055399894714355 0.9651829600334167 0.10290199518203735 -1.0844299763723697e-10 5.970929306542416e-10 -7.095490306419094e-10 10.27859878540039 0.73180091381073 0.025912316516041756 -1.0845499498479683e-10 5.970829941581712e-10 -7.095409260138297e-10 2.221669912338257 -0.733487069606781 -0.208919957280159 1.7949498902188402e-14 -3.450389727079929e-14 2.545730011342673e-13 -63.17349624633789 54.80980682373047 -13.37090015411377 27.773099899291992 -41.47520065307617 -86.60719299316406 1.2716001272201538 -30.252397537231445 4.701749801635742 1.0471999656314068e-10 -6.190129742122963e-09 4.652889740164312e-10 1.691669859749112e-10 -1.0606499678544878e-08 8.056759703833904e-10 1.047170058998681e-10 -6.190119528071136e-09 4.652870033705625e-10 -7.730909824371338 5.474879741668701 -0.4173140823841095 1.0471899736241852e-10 -6.190129742122963e-09 4.6529100017345115e-10 -2.9055399894714355 0.9651829600334167 -0.10290199518203735 1.047170058998681e-10 -6.1901395120855796e-09 4.652919993741733e-10 -10.27859878540039 0.73180091381073 -0.025912316516041756 1.0472400030492324e-10 -6.190129742122963e-09 4.6528100816622953e-10 -2.221669912338257 -0.733487069606781 0.208919957280159 -2.0321699480147914e-16 0.0 -3.8825099822884138e-19 -35.495399475097656 -57.93770217895508 -29.55610466003418 -0.9393279552459717 57.551300048828125 1.3263200521469116 1.7032698392868042 -0.9771191477775574 12.088098526000977 2.0321699480147914e-16 0.0 3.8825099822884138e-19 11.683001518249512 -6.94590950012207 3.4525399208068848 0.2556309700012207 50.52530288696289 -2.7236196994781494 9.007819175720215 -18.549402236938477 27.797698974609375
-19.5057 61.75690000000001 -108.242 2.728100061416626 19.15169906616211 7.377799987792969 -6.806230068206787 12.349501609802246 1.3894398212432861 4.558790683746338 -9.426690101623535 0.6968960165977478 -7.788979530334473 17.457599639892578 -8.919300079345703 13.02669906616211 -28.299997329711914 -14.539498329162598 -0.0 0.0 -0.0 -0.0 0.0 -0.0 -6.959169839785423e-14 6.542710167048438e-14 6.294360106913477e-13 39.333499908447266 29.472402572631836 18.224098205566406 -28.230998992919922 -32.23979949951172 70.8418960571289 -0.0406625010073185 -5.746579647064209 -0.8103740215301514 -4.3816497652393593e-10 2.5657500568598834e-09 -2.6701898470093965e-09 -7.46391004557978e-10 4.478089898896087e-09 -4.61636995296999e-09 -4.3815598371743647e-10 2.5657500568598834e-09 -2.6701898470093965e-09 7.730909824371338 5.474879741668701 0.4173140823841095 -4.3816397732321377e-10 2.5657500568598834e-09 -2.6701898470093965e-09 2.9055399894714355 0.9651829600334167 0.10290199518203735 -4.3815895356402734e-10 2.565739842808057e-09 -2.6701898470093965e-09 10.27859878540039 0.73180091381073 0.025912316516041756 -4.3816397732321377e-10 2.5657500568598834e-09 -2.670179855002175e-09 2.221669912338257 -0.733487069606781 -0.208919957280159 -6.964329286873738e-14 6.542289361080242e-14 6.291919567823212e-13 -63.12940216064453 54.90080261230469 -13.334501266479492 27.742401123046875 -41.600502014160156 -86.84119415283203 1.2736201286315918 -30.27370262145996 4.705770015716553 -6.658519846602928e-10 2.526909881339634e-08 -9.451909255275837e-10 -1.1330899551964535e-09 4.332800074280385e-08 -1.6432499805318912e-09 -6.65858035375777e-10 2.526909881339634e-08 -9.45192923929028e-10 -7.730909824371338 5.474879741668701 -0.4173140823841095 -6.658539830617372e-10 2.526909881339634e-08 -9.451889271261393e-10 -2.9055399894714355 0.9651829600334167 -0.10290199518203735 -6.65858035375777e-10 2.526909881339634e-08 -9.45186928724695e-10 -10.27859878540039 0.73180091381073 -0.025912316516041756 -6.658509854595707e-10 2.526909881339634e-08 -9.451949223304723e-10 -2.221669912338257 -0.733487069606781 0.208919957280159 -2.0321699480147914e-16 0.0 -3.8825099822884138e-19 -36.15950012207031 -58.16450500488281 -30.692598342895508 -0.9738861918449402 58.15589904785156 1.3574299812316895 1.7041399478912354 -0.4999619722366333 13.774598121643066 2.0321699480147914e-16 0.0 3.8825099822884138e-19 11.009500503540039 -4.785410404205322 3.8210697174072266 0.20054300129413605 48.47669982910156 -2.6689400672912598 9.622689247131348 -18.98379898071289 28.789396286010742
